<mxfile host="app.diagrams.net" modified="2020-09-26T11:44:49.536Z" agent="5.0 (Windows NT 10.0; Win64; x64) AppleWebKit/537.36 (KHTML, like Gecko) Chrome/85.0.4183.121 Safari/537.36" etag="qfPGvBHpXaTZ4jFjhKIf" version="13.7.3" type="github">
  <diagram id="g51IYvqvkqXGetL-iWyo" name="Page-1">
    <mxGraphModel dx="1422" dy="794" grid="1" gridSize="10" guides="1" tooltips="1" connect="1" arrows="1" fold="1" page="1" pageScale="1" pageWidth="827" pageHeight="1169" math="0" shadow="0">
      <root>
        <mxCell id="0" />
        <mxCell id="1" parent="0" />
        <mxCell id="p7lh9nsfnLcNHIyFF8b9-7" value="Shape" style="swimlane;fontStyle=1;align=center;verticalAlign=top;childLayout=stackLayout;horizontal=1;startSize=26;horizontalStack=0;resizeParent=1;resizeParentMax=0;resizeLast=0;collapsible=1;marginBottom=0;" parent="1" vertex="1">
          <mxGeometry x="180" width="210" height="200" as="geometry" />
        </mxCell>
        <mxCell id="p7lh9nsfnLcNHIyFF8b9-8" value="#color: String&#xa;#filled: boolean" style="text;strokeColor=none;fillColor=none;align=left;verticalAlign=top;spacingLeft=4;spacingRight=4;overflow=hidden;rotatable=0;points=[[0,0.5],[1,0.5]];portConstraint=eastwest;" parent="p7lh9nsfnLcNHIyFF8b9-7" vertex="1">
          <mxGeometry y="26" width="210" height="34" as="geometry" />
        </mxCell>
        <mxCell id="p7lh9nsfnLcNHIyFF8b9-9" value="" style="line;strokeWidth=1;fillColor=none;align=left;verticalAlign=middle;spacingTop=-1;spacingLeft=3;spacingRight=3;rotatable=0;labelPosition=right;points=[];portConstraint=eastwest;" parent="p7lh9nsfnLcNHIyFF8b9-7" vertex="1">
          <mxGeometry y="60" width="210" height="8" as="geometry" />
        </mxCell>
        <mxCell id="p7lh9nsfnLcNHIyFF8b9-10" value="+Shape()&#xa;+Shape(color: String, filled: boolean)&#xa;+getcolor(): String&#xa;+setcolor(color: String): void&#xa;+isfilled(): boolean;&#xa;+setfilled(filled: boolean): void&#xa;+gerarea():double&#xa;+getprimeter():double&#xa;+toString():String" style="text;strokeColor=none;fillColor=none;align=left;verticalAlign=top;spacingLeft=4;spacingRight=4;overflow=hidden;rotatable=0;points=[[0,0.5],[1,0.5]];portConstraint=eastwest;" parent="p7lh9nsfnLcNHIyFF8b9-7" vertex="1">
          <mxGeometry y="68" width="210" height="132" as="geometry" />
        </mxCell>
        <mxCell id="p7lh9nsfnLcNHIyFF8b9-3" value="Rectangle" style="swimlane;fontStyle=1;align=center;verticalAlign=top;childLayout=stackLayout;horizontal=1;startSize=26;horizontalStack=0;resizeParent=1;resizeParentMax=0;resizeLast=0;collapsible=1;marginBottom=0;" parent="1" vertex="1">
          <mxGeometry x="165" y="270" width="240" height="230" as="geometry" />
        </mxCell>
        <mxCell id="p7lh9nsfnLcNHIyFF8b9-4" value="#width:double&#xa;#lenght:double" style="text;strokeColor=none;fillColor=none;align=left;verticalAlign=top;spacingLeft=4;spacingRight=4;overflow=hidden;rotatable=0;points=[[0,0.5],[1,0.5]];portConstraint=eastwest;" parent="p7lh9nsfnLcNHIyFF8b9-3" vertex="1">
          <mxGeometry y="26" width="240" height="34" as="geometry" />
        </mxCell>
        <mxCell id="p7lh9nsfnLcNHIyFF8b9-5" value="" style="line;strokeWidth=1;fillColor=none;align=left;verticalAlign=middle;spacingTop=-1;spacingLeft=3;spacingRight=3;rotatable=0;labelPosition=right;points=[];portConstraint=eastwest;" parent="p7lh9nsfnLcNHIyFF8b9-3" vertex="1">
          <mxGeometry y="60" width="240" height="8" as="geometry" />
        </mxCell>
        <mxCell id="p7lh9nsfnLcNHIyFF8b9-6" value="+Rectangle()&#xa;+Rectangle(width: double, lenght: double)&#xa;+Rectangle(width: double, lenght: double,&#xa;color: String, filled: boolean)&#xa;+getwidth(): double&#xa;+setwidth(width: double): void&#xa;+getlenght():double&#xa;+setlenght(lenght: double):void&#xa;+gerarea():double&#xa;+getprimeter():double&#xa;+toString():String" style="text;strokeColor=none;fillColor=none;align=left;verticalAlign=top;spacingLeft=4;spacingRight=4;overflow=hidden;rotatable=0;points=[[0,0.5],[1,0.5]];portConstraint=eastwest;" parent="p7lh9nsfnLcNHIyFF8b9-3" vertex="1">
          <mxGeometry y="68" width="240" height="162" as="geometry" />
        </mxCell>
        <mxCell id="p7lh9nsfnLcNHIyFF8b9-16" value="Extends" style="endArrow=block;endSize=16;endFill=0;html=1;exitX=0.5;exitY=0;exitDx=0;exitDy=0;" parent="1" source="p7lh9nsfnLcNHIyFF8b9-3" edge="1">
          <mxGeometry width="160" relative="1" as="geometry">
            <mxPoint x="330" y="310" as="sourcePoint" />
            <mxPoint x="285" y="200" as="targetPoint" />
          </mxGeometry>
        </mxCell>
        <mxCell id="p7lh9nsfnLcNHIyFF8b9-17" value="&lt;p style=&quot;margin: 0px ; margin-top: 4px ; text-align: center&quot;&gt;&lt;i&gt;&amp;lt;&amp;lt;Interface&amp;gt;&amp;gt;&lt;/i&gt;&lt;br&gt;&lt;b&gt;Movable&lt;/b&gt;&lt;/p&gt;&lt;hr size=&quot;1&quot;&gt;&lt;p style=&quot;margin: 0px ; margin-left: 4px&quot;&gt;&lt;br&gt;&lt;/p&gt;&lt;hr size=&quot;1&quot;&gt;&lt;p style=&quot;margin: 0px ; margin-left: 4px&quot;&gt;+moveup():void&lt;/p&gt;&lt;p style=&quot;margin: 0px ; margin-left: 4px&quot;&gt;+movedown():void&lt;br&gt;&lt;/p&gt;&lt;p style=&quot;margin: 0px ; margin-left: 4px&quot;&gt;+left():void&lt;br&gt;&lt;/p&gt;&lt;p style=&quot;margin: 0px ; margin-left: 4px&quot;&gt;+right(): void&lt;/p&gt;" style="verticalAlign=top;align=left;overflow=fill;fontSize=12;fontFamily=Helvetica;html=1;" parent="1" vertex="1">
          <mxGeometry x="515" y="270" width="190" height="140" as="geometry" />
        </mxCell>
        <mxCell id="p7lh9nsfnLcNHIyFF8b9-27" value="" style="endArrow=diamondThin;endFill=0;endSize=24;html=1;exitX=0.5;exitY=0;exitDx=0;exitDy=0;" parent="1" source="p7lh9nsfnLcNHIyFF8b9-22" edge="1">
          <mxGeometry width="160" relative="1" as="geometry">
            <mxPoint x="330" y="680" as="sourcePoint" />
            <mxPoint x="608" y="672" as="targetPoint" />
            <Array as="points" />
          </mxGeometry>
        </mxCell>
        <mxCell id="p7lh9nsfnLcNHIyFF8b9-22" value="Movablepoints" style="swimlane;fontStyle=1;align=center;verticalAlign=top;childLayout=stackLayout;horizontal=1;startSize=26;horizontalStack=0;resizeParent=1;resizeParentMax=0;resizeLast=0;collapsible=1;marginBottom=0;" parent="1" vertex="1">
          <mxGeometry x="530" y="730" width="160" height="250" as="geometry" />
        </mxCell>
        <mxCell id="p7lh9nsfnLcNHIyFF8b9-23" value="+x1: int&#xa;+y1: int&#xa;+x2: int&#xa;+y2:int&#xa;+xspeed: int&#xa;+yspeed: int" style="text;strokeColor=none;fillColor=none;align=left;verticalAlign=top;spacingLeft=4;spacingRight=4;overflow=hidden;rotatable=0;points=[[0,0.5],[1,0.5]];portConstraint=eastwest;" parent="p7lh9nsfnLcNHIyFF8b9-22" vertex="1">
          <mxGeometry y="26" width="160" height="94" as="geometry" />
        </mxCell>
        <mxCell id="p7lh9nsfnLcNHIyFF8b9-24" value="" style="line;strokeWidth=1;fillColor=none;align=left;verticalAlign=middle;spacingTop=-1;spacingLeft=3;spacingRight=3;rotatable=0;labelPosition=right;points=[];portConstraint=eastwest;" parent="p7lh9nsfnLcNHIyFF8b9-22" vertex="1">
          <mxGeometry y="120" width="160" height="8" as="geometry" />
        </mxCell>
        <mxCell id="p7lh9nsfnLcNHIyFF8b9-25" value="+Movablepoints(x1:int, x2: int,&#xa;y1:int, y2: int, xspeed: int, &#xa;yspeed: int)&#xa;+toString(): String&#xa;+moveup():void&#xa;+movedown():void&#xa;+left():void&#xa;+right(): void" style="text;strokeColor=none;fillColor=none;align=left;verticalAlign=top;spacingLeft=4;spacingRight=4;overflow=hidden;rotatable=0;points=[[0,0.5],[1,0.5]];portConstraint=eastwest;" parent="p7lh9nsfnLcNHIyFF8b9-22" vertex="1">
          <mxGeometry y="128" width="160" height="122" as="geometry" />
        </mxCell>
        <mxCell id="p7lh9nsfnLcNHIyFF8b9-18" value="Movablerectangle" style="swimlane;fontStyle=1;align=center;verticalAlign=top;childLayout=stackLayout;horizontal=1;startSize=26;horizontalStack=0;resizeParent=1;resizeParentMax=0;resizeLast=0;collapsible=1;marginBottom=0;" parent="1" vertex="1">
          <mxGeometry x="530" y="460" width="160" height="210" as="geometry" />
        </mxCell>
        <mxCell id="p7lh9nsfnLcNHIyFF8b9-19" value="+pointone: Movablepoints&#xa;+pointtwo: Movablepoints&#xa;" style="text;strokeColor=none;fillColor=none;align=left;verticalAlign=top;spacingLeft=4;spacingRight=4;overflow=hidden;rotatable=0;points=[[0,0.5],[1,0.5]];portConstraint=eastwest;" parent="p7lh9nsfnLcNHIyFF8b9-18" vertex="1">
          <mxGeometry y="26" width="160" height="44" as="geometry" />
        </mxCell>
        <mxCell id="p7lh9nsfnLcNHIyFF8b9-20" value="" style="line;strokeWidth=1;fillColor=none;align=left;verticalAlign=middle;spacingTop=-1;spacingLeft=3;spacingRight=3;rotatable=0;labelPosition=right;points=[];portConstraint=eastwest;" parent="p7lh9nsfnLcNHIyFF8b9-18" vertex="1">
          <mxGeometry y="70" width="160" height="18" as="geometry" />
        </mxCell>
        <mxCell id="p7lh9nsfnLcNHIyFF8b9-32" value="+Movablerctangle(x1: int, x2: int,&#xa;y1: int, y2: int, xspeed: int,&#xa;yspeed: int)" style="text;strokeColor=none;fillColor=none;align=left;verticalAlign=top;spacingLeft=4;spacingRight=4;overflow=hidden;rotatable=0;points=[[0,0.5],[1,0.5]];portConstraint=eastwest;" parent="p7lh9nsfnLcNHIyFF8b9-18" vertex="1">
          <mxGeometry y="88" width="160" height="44" as="geometry" />
        </mxCell>
        <mxCell id="p7lh9nsfnLcNHIyFF8b9-21" value="+toString(): String&#xa;+moveup():void&#xa;+movedown():void&#xa;+left():void&#xa;+right(): void" style="text;strokeColor=none;fillColor=none;align=left;verticalAlign=top;spacingLeft=4;spacingRight=4;overflow=hidden;rotatable=0;points=[[0,0.5],[1,0.5]];portConstraint=eastwest;" parent="p7lh9nsfnLcNHIyFF8b9-18" vertex="1">
          <mxGeometry y="132" width="160" height="78" as="geometry" />
        </mxCell>
        <mxCell id="p7lh9nsfnLcNHIyFF8b9-34" value="" style="endArrow=block;dashed=1;endFill=0;endSize=12;html=1;exitX=0.5;exitY=0;exitDx=0;exitDy=0;entryX=0.5;entryY=1;entryDx=0;entryDy=0;" parent="1" source="p7lh9nsfnLcNHIyFF8b9-18" target="p7lh9nsfnLcNHIyFF8b9-17" edge="1">
          <mxGeometry width="160" relative="1" as="geometry">
            <mxPoint x="330" y="590" as="sourcePoint" />
            <mxPoint x="490" y="590" as="targetPoint" />
          </mxGeometry>
        </mxCell>
        <mxCell id="p7lh9nsfnLcNHIyFF8b9-35" value="Extends" style="endArrow=block;endSize=16;endFill=0;html=1;entryX=0.471;entryY=1.012;entryDx=0;entryDy=0;entryPerimeter=0;exitX=0;exitY=0.5;exitDx=0;exitDy=0;" parent="1" source="p7lh9nsfnLcNHIyFF8b9-32" target="p7lh9nsfnLcNHIyFF8b9-6" edge="1">
          <mxGeometry x="-0.077" y="11" width="160" relative="1" as="geometry">
            <mxPoint x="278" y="600" as="sourcePoint" />
            <mxPoint x="490" y="590" as="targetPoint" />
            <Array as="points">
              <mxPoint x="278" y="570" />
              <mxPoint x="278" y="520" />
            </Array>
            <mxPoint as="offset" />
          </mxGeometry>
        </mxCell>
        <mxCell id="xAlcUbTcCkyD-HZPMusT-1" value="" style="endArrow=block;dashed=1;endFill=0;endSize=12;html=1;entryX=0.5;entryY=1;entryDx=0;entryDy=0;" edge="1" parent="1" target="p7lh9nsfnLcNHIyFF8b9-17">
          <mxGeometry width="160" relative="1" as="geometry">
            <mxPoint x="690" y="840" as="sourcePoint" />
            <mxPoint x="850" y="840" as="targetPoint" />
            <Array as="points">
              <mxPoint x="740" y="840" />
              <mxPoint x="740" y="440" />
              <mxPoint x="610" y="440" />
            </Array>
          </mxGeometry>
        </mxCell>
      </root>
    </mxGraphModel>
  </diagram>
</mxfile>
